<mxfile host="app.diagrams.net" agent="Mozilla/5.0 (X11; Ubuntu; Linux x86_64; rv:126.0) Gecko/20100101 Firefox/126.0" version="26.0.10">
  <diagram name="PÃ¡gina-1" id="Q4VgW65nHnnaz7NwZB-u">
    <mxGraphModel dx="2873" dy="1036" grid="1" gridSize="10" guides="1" tooltips="1" connect="1" arrows="1" fold="1" page="1" pageScale="1" pageWidth="827" pageHeight="1169" math="0" shadow="0">
      <root>
        <mxCell id="0" />
        <mxCell id="1" parent="0" />
        <mxCell id="u360cqK-RKr2Ww8NjMrk-1" value="Playlist" style="swimlane;childLayout=stackLayout;horizontal=1;startSize=50;horizontalStack=0;rounded=1;fontSize=14;fontStyle=0;strokeWidth=2;resizeParent=0;resizeLast=1;shadow=0;dashed=0;align=center;arcSize=4;whiteSpace=wrap;html=1;" parent="1" vertex="1">
          <mxGeometry x="-65" y="230" width="170" height="160" as="geometry" />
        </mxCell>
        <mxCell id="u360cqK-RKr2Ww8NjMrk-2" value="&lt;div&gt;id: int&lt;/div&gt;&lt;div&gt;nombre: string&lt;/div&gt;&lt;div&gt;visibilidad: string&lt;/div&gt;&lt;div&gt;propietario: Usuario&lt;/div&gt;&lt;div&gt;reproducciones: int&lt;/div&gt;&lt;div&gt;likes: int&lt;br&gt;&lt;/div&gt;" style="align=left;strokeColor=none;fillColor=none;spacingLeft=4;fontSize=12;verticalAlign=top;resizable=0;rotatable=0;part=1;html=1;" parent="u360cqK-RKr2Ww8NjMrk-1" vertex="1">
          <mxGeometry y="50" width="170" height="110" as="geometry" />
        </mxCell>
        <mxCell id="u360cqK-RKr2Ww8NjMrk-3" value="Perfil" style="swimlane;childLayout=stackLayout;horizontal=1;startSize=50;horizontalStack=0;rounded=1;fontSize=14;fontStyle=0;strokeWidth=2;resizeParent=0;resizeLast=1;shadow=0;dashed=0;align=center;arcSize=4;whiteSpace=wrap;html=1;" parent="1" vertex="1">
          <mxGeometry x="20" y="920" width="200" height="140" as="geometry" />
        </mxCell>
        <mxCell id="u360cqK-RKr2Ww8NjMrk-4" value="+id: int&lt;br&gt;+foto: string&lt;br&gt;&lt;div&gt;+descripcion: string&lt;/div&gt;&lt;div&gt;+EstiloMusicalPreferido: Estilo&lt;/div&gt;" style="align=left;strokeColor=none;fillColor=none;spacingLeft=4;fontSize=12;verticalAlign=top;resizable=0;rotatable=0;part=1;html=1;" parent="u360cqK-RKr2Ww8NjMrk-3" vertex="1">
          <mxGeometry y="50" width="200" height="90" as="geometry" />
        </mxCell>
        <mxCell id="u360cqK-RKr2Ww8NjMrk-5" value="UsuarioPlaylist" style="swimlane;childLayout=stackLayout;horizontal=1;startSize=50;horizontalStack=0;rounded=1;fontSize=14;fontStyle=0;strokeWidth=2;resizeParent=0;resizeLast=1;shadow=0;dashed=0;align=center;arcSize=4;whiteSpace=wrap;html=1;" parent="1" vertex="1">
          <mxGeometry x="310" y="240" width="160" height="120" as="geometry" />
        </mxCell>
        <mxCell id="u360cqK-RKr2Ww8NjMrk-6" value="&lt;div&gt;id: int&lt;/div&gt;&lt;div&gt;usuario: Usuario&lt;/div&gt;&lt;div&gt;playlist: Playlist&lt;/div&gt;&lt;div&gt;reproducida: int&lt;br&gt;&lt;/div&gt;" style="align=left;strokeColor=none;fillColor=none;spacingLeft=4;fontSize=12;verticalAlign=top;resizable=0;rotatable=0;part=1;html=1;" parent="u360cqK-RKr2Ww8NjMrk-5" vertex="1">
          <mxGeometry y="50" width="160" height="70" as="geometry" />
        </mxCell>
        <mxCell id="u360cqK-RKr2Ww8NjMrk-7" value="Cancion" style="swimlane;childLayout=stackLayout;horizontal=1;startSize=50;horizontalStack=0;rounded=1;fontSize=14;fontStyle=0;strokeWidth=2;resizeParent=0;resizeLast=1;shadow=0;dashed=0;align=center;arcSize=4;whiteSpace=wrap;html=1;" parent="1" vertex="1">
          <mxGeometry x="-520" y="540" width="150" height="190" as="geometry" />
        </mxCell>
        <mxCell id="u360cqK-RKr2Ww8NjMrk-8" value="&lt;div&gt;id: int&lt;/div&gt;&lt;div&gt;titulo: string&lt;/div&gt;&lt;div&gt;duracion: int&lt;/div&gt;&lt;div&gt;album: string&lt;/div&gt;&lt;div&gt;autor: string&lt;/div&gt;&lt;div&gt;genero: Estilo&lt;/div&gt;&lt;div&gt;reproducciones: int&lt;/div&gt;&lt;div&gt;likes: int&lt;br&gt;&lt;/div&gt;" style="align=left;strokeColor=none;fillColor=none;spacingLeft=4;fontSize=12;verticalAlign=top;resizable=0;rotatable=0;part=1;html=1;" parent="u360cqK-RKr2Ww8NjMrk-7" vertex="1">
          <mxGeometry y="50" width="150" height="140" as="geometry" />
        </mxCell>
        <mxCell id="u360cqK-RKr2Ww8NjMrk-9" value="Usuario" style="swimlane;childLayout=stackLayout;horizontal=1;startSize=50;horizontalStack=0;rounded=1;fontSize=14;fontStyle=0;strokeWidth=2;resizeParent=0;resizeLast=1;shadow=0;dashed=0;align=center;arcSize=4;whiteSpace=wrap;html=1;" parent="1" vertex="1">
          <mxGeometry x="-73" y="555" width="186" height="160" as="geometry" />
        </mxCell>
        <mxCell id="u360cqK-RKr2Ww8NjMrk-10" value="&lt;div&gt;id: int&lt;/div&gt;&lt;div&gt;nombre: string&lt;/div&gt;&lt;div&gt;email: string&lt;/div&gt;&lt;div&gt;password: string&lt;/div&gt;&lt;div&gt;fechaNacimiento: date&lt;/div&gt;&lt;div&gt;perfil: Perfil&lt;br&gt;&lt;/div&gt;&lt;div&gt;&lt;br&gt;&lt;/div&gt;" style="align=left;strokeColor=none;fillColor=none;spacingLeft=4;fontSize=12;verticalAlign=top;resizable=0;rotatable=0;part=1;html=1;" parent="u360cqK-RKr2Ww8NjMrk-9" vertex="1">
          <mxGeometry y="50" width="186" height="110" as="geometry" />
        </mxCell>
        <mxCell id="u360cqK-RKr2Ww8NjMrk-11" value="Estilo" style="swimlane;childLayout=stackLayout;horizontal=1;startSize=50;horizontalStack=0;rounded=1;fontSize=14;fontStyle=0;strokeWidth=2;resizeParent=0;resizeLast=1;shadow=0;dashed=0;align=center;arcSize=4;whiteSpace=wrap;html=1;" parent="1" vertex="1">
          <mxGeometry x="-440" y="930" width="160" height="120" as="geometry" />
        </mxCell>
        <mxCell id="u360cqK-RKr2Ww8NjMrk-12" value="Id: int&lt;br&gt;Nombre: string&lt;br&gt;Descripcion: string" style="align=left;strokeColor=none;fillColor=none;spacingLeft=4;fontSize=12;verticalAlign=top;resizable=0;rotatable=0;part=1;html=1;" parent="u360cqK-RKr2Ww8NjMrk-11" vertex="1">
          <mxGeometry y="50" width="160" height="70" as="geometry" />
        </mxCell>
        <mxCell id="u360cqK-RKr2Ww8NjMrk-13" value="PlaylistCancion" style="swimlane;childLayout=stackLayout;horizontal=1;startSize=50;horizontalStack=0;rounded=1;fontSize=14;fontStyle=0;strokeWidth=2;resizeParent=0;resizeLast=1;shadow=0;dashed=0;align=center;arcSize=4;whiteSpace=wrap;html=1;" parent="1" vertex="1">
          <mxGeometry x="-525" y="217.69" width="160" height="120" as="geometry" />
        </mxCell>
        <mxCell id="u360cqK-RKr2Ww8NjMrk-14" value="&lt;div&gt;id: int&lt;/div&gt;&lt;div&gt;playlist: Playlist&lt;/div&gt;&lt;div&gt;cancion: Cancion&lt;br&gt;&lt;/div&gt;" style="align=left;strokeColor=none;fillColor=none;spacingLeft=4;fontSize=12;verticalAlign=top;resizable=0;rotatable=0;part=1;html=1;" parent="u360cqK-RKr2Ww8NjMrk-13" vertex="1">
          <mxGeometry y="50" width="160" height="70" as="geometry" />
        </mxCell>
        <mxCell id="u360cqK-RKr2Ww8NjMrk-23" value="" style="endArrow=none;html=1;rounded=0;exitX=0.5;exitY=1;exitDx=0;exitDy=0;entryX=-0.019;entryY=0.383;entryDx=0;entryDy=0;entryPerimeter=0;" parent="1" source="u360cqK-RKr2Ww8NjMrk-8" target="u360cqK-RKr2Ww8NjMrk-11" edge="1">
          <mxGeometry relative="1" as="geometry">
            <mxPoint x="-250" y="740" as="sourcePoint" />
            <mxPoint x="-90" y="740" as="targetPoint" />
          </mxGeometry>
        </mxCell>
        <mxCell id="u360cqK-RKr2Ww8NjMrk-27" value="&lt;font style=&quot;font-size: 16px;&quot;&gt;1&lt;/font&gt;" style="text;html=1;align=center;verticalAlign=middle;resizable=0;points=[];autosize=1;strokeColor=none;fillColor=none;" parent="1" vertex="1">
          <mxGeometry x="-440" y="880" width="30" height="30" as="geometry" />
        </mxCell>
        <mxCell id="u360cqK-RKr2Ww8NjMrk-28" value="&lt;font style=&quot;font-size: 30px;&quot;&gt;*&lt;/font&gt;" style="text;html=1;align=center;verticalAlign=middle;resizable=0;points=[];autosize=1;strokeColor=none;fillColor=none;" parent="1" vertex="1">
          <mxGeometry x="-440" y="754.5" width="40" height="50" as="geometry" />
        </mxCell>
        <mxCell id="u360cqK-RKr2Ww8NjMrk-31" value="" style="endArrow=none;html=1;rounded=0;exitX=0.988;exitY=0.367;exitDx=0;exitDy=0;exitPerimeter=0;entryX=0;entryY=0;entryDx=0;entryDy=0;" parent="1" source="u360cqK-RKr2Ww8NjMrk-11" target="u360cqK-RKr2Ww8NjMrk-4" edge="1">
          <mxGeometry width="50" height="50" relative="1" as="geometry">
            <mxPoint x="160" y="630" as="sourcePoint" />
            <mxPoint x="210" y="580" as="targetPoint" />
          </mxGeometry>
        </mxCell>
        <mxCell id="u360cqK-RKr2Ww8NjMrk-32" value="&lt;font style=&quot;font-size: 30px;&quot;&gt;*&lt;/font&gt;" style="text;html=1;align=center;verticalAlign=middle;resizable=0;points=[];autosize=1;strokeColor=none;fillColor=none;" parent="1" vertex="1">
          <mxGeometry x="-270" y="940" width="40" height="50" as="geometry" />
        </mxCell>
        <mxCell id="u360cqK-RKr2Ww8NjMrk-37" value="&lt;font style=&quot;font-size: 16px;&quot;&gt;1&lt;/font&gt;" style="text;html=1;align=center;verticalAlign=middle;resizable=0;points=[];autosize=1;strokeColor=none;fillColor=none;" parent="1" vertex="1">
          <mxGeometry x="-490" y="500" width="30" height="30" as="geometry" />
        </mxCell>
        <mxCell id="u360cqK-RKr2Ww8NjMrk-39" value="" style="endArrow=none;html=1;rounded=0;entryX=1;entryY=0.5;entryDx=0;entryDy=0;exitX=-0.013;exitY=0.166;exitDx=0;exitDy=0;exitPerimeter=0;" parent="1" source="u360cqK-RKr2Ww8NjMrk-2" target="u360cqK-RKr2Ww8NjMrk-14" edge="1">
          <mxGeometry width="50" height="50" relative="1" as="geometry">
            <mxPoint x="-27.61000000000024" y="486.41" as="sourcePoint" />
            <mxPoint x="-132.39" y="329.99999999999994" as="targetPoint" />
          </mxGeometry>
        </mxCell>
        <mxCell id="u360cqK-RKr2Ww8NjMrk-40" value="&lt;font style=&quot;font-size: 16px;&quot;&gt;1&lt;/font&gt;" style="text;html=1;align=center;verticalAlign=middle;resizable=0;points=[];autosize=1;strokeColor=none;fillColor=none;" parent="1" vertex="1">
          <mxGeometry x="-110" y="262.69" width="30" height="30" as="geometry" />
        </mxCell>
        <mxCell id="u360cqK-RKr2Ww8NjMrk-41" value="&lt;font style=&quot;font-size: 30px;&quot;&gt;*&lt;/font&gt;" style="text;html=1;align=center;verticalAlign=middle;resizable=0;points=[];autosize=1;strokeColor=none;fillColor=none;" parent="1" vertex="1">
          <mxGeometry x="-340" y="262.69" width="40" height="50" as="geometry" />
        </mxCell>
        <mxCell id="u360cqK-RKr2Ww8NjMrk-42" value="" style="endArrow=none;html=1;rounded=0;exitX=1.02;exitY=0.114;exitDx=0;exitDy=0;exitPerimeter=0;" parent="1" source="u360cqK-RKr2Ww8NjMrk-2" edge="1">
          <mxGeometry width="50" height="50" relative="1" as="geometry">
            <mxPoint x="70" y="480" as="sourcePoint" />
            <mxPoint x="310" y="293" as="targetPoint" />
          </mxGeometry>
        </mxCell>
        <mxCell id="u360cqK-RKr2Ww8NjMrk-43" value="&lt;font style=&quot;font-size: 30px;&quot;&gt;*&lt;/font&gt;" style="text;html=1;align=center;verticalAlign=middle;resizable=0;points=[];autosize=1;strokeColor=none;fillColor=none;" parent="1" vertex="1">
          <mxGeometry x="260" y="252.69" width="40" height="50" as="geometry" />
        </mxCell>
        <mxCell id="u360cqK-RKr2Ww8NjMrk-44" value="&lt;font style=&quot;font-size: 16px;&quot;&gt;1&lt;/font&gt;" style="text;html=1;align=center;verticalAlign=middle;resizable=0;points=[];autosize=1;strokeColor=none;fillColor=none;" parent="1" vertex="1">
          <mxGeometry x="115" y="240" width="30" height="30" as="geometry" />
        </mxCell>
        <mxCell id="u360cqK-RKr2Ww8NjMrk-45" value="&lt;font style=&quot;font-size: 30px;&quot;&gt;*&lt;/font&gt;" style="text;html=1;align=center;verticalAlign=middle;resizable=0;points=[];autosize=1;strokeColor=none;fillColor=none;" parent="1" vertex="1">
          <mxGeometry x="300" y="370" width="40" height="50" as="geometry" />
        </mxCell>
        <mxCell id="u360cqK-RKr2Ww8NjMrk-46" value="" style="endArrow=none;html=1;rounded=0;entryX=0.5;entryY=1;entryDx=0;entryDy=0;exitX=1;exitY=0;exitDx=0;exitDy=0;" parent="1" source="u360cqK-RKr2Ww8NjMrk-10" target="u360cqK-RKr2Ww8NjMrk-6" edge="1">
          <mxGeometry width="50" height="50" relative="1" as="geometry">
            <mxPoint x="88" y="502" as="sourcePoint" />
            <mxPoint x="252" y="341" as="targetPoint" />
          </mxGeometry>
        </mxCell>
        <mxCell id="u360cqK-RKr2Ww8NjMrk-47" value="" style="endArrow=none;html=1;rounded=0;exitX=0;exitY=0;exitDx=0;exitDy=0;entryX=0.5;entryY=1;entryDx=0;entryDy=0;" parent="1" source="u360cqK-RKr2Ww8NjMrk-3" target="u360cqK-RKr2Ww8NjMrk-10" edge="1">
          <mxGeometry width="50" height="50" relative="1" as="geometry">
            <mxPoint x="160" y="630" as="sourcePoint" />
            <mxPoint x="210" y="580" as="targetPoint" />
          </mxGeometry>
        </mxCell>
        <mxCell id="u360cqK-RKr2Ww8NjMrk-49" value="&lt;font style=&quot;font-size: 16px;&quot;&gt;1&lt;/font&gt;" style="text;html=1;align=center;verticalAlign=middle;resizable=0;points=[];autosize=1;strokeColor=none;fillColor=none;" parent="1" vertex="1">
          <mxGeometry x="130" y="530" width="30" height="30" as="geometry" />
        </mxCell>
        <mxCell id="u360cqK-RKr2Ww8NjMrk-50" value="&lt;font style=&quot;font-size: 16px;&quot;&gt;1&lt;/font&gt;" style="text;html=1;align=center;verticalAlign=middle;resizable=0;points=[];autosize=1;strokeColor=none;fillColor=none;" parent="1" vertex="1">
          <mxGeometry x="30" y="890" width="30" height="30" as="geometry" />
        </mxCell>
        <mxCell id="u360cqK-RKr2Ww8NjMrk-51" value="&lt;font style=&quot;font-size: 16px;&quot;&gt;1&lt;/font&gt;" style="text;html=1;align=center;verticalAlign=middle;resizable=0;points=[];autosize=1;strokeColor=none;fillColor=none;" parent="1" vertex="1">
          <mxGeometry x="40" y="724.5" width="30" height="30" as="geometry" />
        </mxCell>
        <mxCell id="u360cqK-RKr2Ww8NjMrk-52" value="&lt;font style=&quot;font-size: 16px;&quot;&gt;1&lt;/font&gt;" style="text;html=1;align=center;verticalAlign=middle;resizable=0;points=[];autosize=1;strokeColor=none;fillColor=none;" parent="1" vertex="1">
          <mxGeometry x="-20" y="520" width="30" height="30" as="geometry" />
        </mxCell>
        <mxCell id="u360cqK-RKr2Ww8NjMrk-53" value="" style="endArrow=none;html=1;rounded=0;exitX=0.5;exitY=1;exitDx=0;exitDy=0;entryX=0.5;entryY=0;entryDx=0;entryDy=0;" parent="1" source="u360cqK-RKr2Ww8NjMrk-2" target="u360cqK-RKr2Ww8NjMrk-9" edge="1">
          <mxGeometry width="50" height="50" relative="1" as="geometry">
            <mxPoint x="340" y="730" as="sourcePoint" />
            <mxPoint x="423" y="600" as="targetPoint" />
          </mxGeometry>
        </mxCell>
        <mxCell id="u360cqK-RKr2Ww8NjMrk-54" value="&lt;font style=&quot;font-size: 30px;&quot;&gt;*&lt;/font&gt;" style="text;html=1;align=center;verticalAlign=middle;resizable=0;points=[];autosize=1;strokeColor=none;fillColor=none;" parent="1" vertex="1">
          <mxGeometry x="-30" y="400" width="40" height="50" as="geometry" />
        </mxCell>
        <mxCell id="x7FvEfgShklo6OKxqp58-1" value="" style="endArrow=none;html=1;rounded=0;exitX=0.5;exitY=0;exitDx=0;exitDy=0;entryX=0.5;entryY=1;entryDx=0;entryDy=0;" parent="1" source="u360cqK-RKr2Ww8NjMrk-7" target="u360cqK-RKr2Ww8NjMrk-14" edge="1">
          <mxGeometry width="50" height="50" relative="1" as="geometry">
            <mxPoint x="-375" y="540" as="sourcePoint" />
            <mxPoint x="-331" y="334" as="targetPoint" />
          </mxGeometry>
        </mxCell>
        <mxCell id="u360cqK-RKr2Ww8NjMrk-38" value="&lt;font style=&quot;font-size: 30px;&quot;&gt;*&lt;/font&gt;" style="text;html=1;align=center;verticalAlign=middle;resizable=0;points=[];autosize=1;strokeColor=none;fillColor=none;" parent="1" vertex="1">
          <mxGeometry x="-490" y="350" width="40" height="50" as="geometry" />
        </mxCell>
        <mxCell id="x7FvEfgShklo6OKxqp58-4" value="" style="endArrow=none;html=1;rounded=0;exitX=1.028;exitY=0.386;exitDx=0;exitDy=0;exitPerimeter=0;entryX=0.015;entryY=0.355;entryDx=0;entryDy=0;entryPerimeter=0;" parent="1" source="u360cqK-RKr2Ww8NjMrk-8" target="u360cqK-RKr2Ww8NjMrk-10" edge="1">
          <mxGeometry width="50" height="50" relative="1" as="geometry">
            <mxPoint x="40" y="670" as="sourcePoint" />
            <mxPoint x="90" y="620" as="targetPoint" />
          </mxGeometry>
        </mxCell>
        <mxCell id="x7FvEfgShklo6OKxqp58-8" value="&lt;font style=&quot;font-size: 30px;&quot;&gt;*&lt;/font&gt;" style="text;html=1;align=center;verticalAlign=middle;resizable=0;points=[];autosize=1;strokeColor=none;fillColor=none;" parent="1" vertex="1">
          <mxGeometry x="-30" y="940" width="40" height="50" as="geometry" />
        </mxCell>
        <mxCell id="x7FvEfgShklo6OKxqp58-9" value="&lt;font style=&quot;font-size: 30px;&quot;&gt;*&lt;/font&gt;" style="text;html=1;align=center;verticalAlign=middle;resizable=0;points=[];autosize=1;strokeColor=none;fillColor=none;" parent="1" vertex="1">
          <mxGeometry x="-350" y="600" width="40" height="50" as="geometry" />
        </mxCell>
        <mxCell id="x7FvEfgShklo6OKxqp58-11" value="&lt;font style=&quot;font-size: 30px;&quot;&gt;*&lt;/font&gt;" style="text;html=1;align=center;verticalAlign=middle;resizable=0;points=[];autosize=1;strokeColor=none;fillColor=none;" parent="1" vertex="1">
          <mxGeometry x="-130" y="600" width="40" height="50" as="geometry" />
        </mxCell>
      </root>
    </mxGraphModel>
  </diagram>
</mxfile>
